<svg width="16" height="16" viewBox="0 0 16 16" fill="none" xmlns="http://www.w3.org/2000/svg">
<g clip-path="url(#clip0_102_69)">
<g clip-path="url(#clip1_102_69)">
<circle cx="8" cy="8" r="8" fill="url(#paint0_linear_102_69)"/>
<path d="M0.800049 10.3444L2.43247 6.45556H3.09581L4.73342 10.3444H4.02862L2.62422 6.83889H2.8937L1.49448 10.3444H0.800049ZM1.55148 9.44444L1.73286 8.87778H3.69177L3.87315 9.44444H1.55148Z" fill="white"/>
<path d="M5.19476 10.3444V6.45556H6.89456C7.32987 6.45556 7.66154 6.54815 7.88956 6.73333C8.11758 6.91481 8.23159 7.15926 8.23159 7.46667C8.23159 7.67407 8.18668 7.85185 8.09685 8C8.00703 8.14444 7.88611 8.25741 7.73409 8.33889C7.58553 8.41667 7.42315 8.45556 7.24695 8.45556L7.34024 8.25556C7.54407 8.25556 7.72718 8.2963 7.88956 8.37778C8.05194 8.45556 8.17977 8.57037 8.27305 8.72222C8.36979 8.87407 8.41816 9.06296 8.41816 9.28889C8.41816 9.62222 8.29896 9.88148 8.06058 10.0667C7.82219 10.2519 7.46807 10.3444 6.9982 10.3444H5.19476ZM5.86846 9.77778H6.95675C7.20895 9.77778 7.40242 9.73333 7.53716 9.64444C7.6719 9.55556 7.73927 9.41296 7.73927 9.21667C7.73927 9.02407 7.6719 8.88333 7.53716 8.79444C7.40242 8.70185 7.20895 8.65556 6.95675 8.65556H5.81664V8.09444H6.82201C7.05694 8.09444 7.23659 8.05 7.36097 7.96111C7.4888 7.87222 7.55271 7.73889 7.55271 7.56111C7.55271 7.37963 7.4888 7.24444 7.36097 7.15556C7.23659 7.06667 7.05694 7.02222 6.82201 7.02222H5.86846V9.77778Z" fill="white"/>
<path d="M9.75903 8.07222H11.5625V8.66667H9.75903V8.07222ZM9.81086 9.73889H11.8579V10.3444H9.13716V6.45556H11.7853V7.06111H9.81086V9.73889Z" fill="white"/>
<path d="M13.7335 10.4C13.4502 10.4 13.179 10.3574 12.9198 10.2722C12.6607 10.1833 12.4552 10.0704 12.3031 9.93333L12.5363 9.37222C12.6814 9.49444 12.8611 9.5963 13.0753 9.67778C13.2895 9.75926 13.5089 9.8 13.7335 9.8C13.9235 9.8 14.0772 9.77778 14.1947 9.73333C14.3121 9.68889 14.3985 9.62963 14.4538 9.55556C14.5091 9.47778 14.5367 9.39074 14.5367 9.29444C14.5367 9.17593 14.497 9.08148 14.4175 9.01111C14.3381 8.93704 14.2344 8.87963 14.1066 8.83889C13.9822 8.79444 13.8423 8.7537 13.6868 8.71667C13.5348 8.67963 13.3811 8.63704 13.2256 8.58889C13.0736 8.53704 12.9337 8.47222 12.8058 8.39444C12.6814 8.31296 12.5795 8.20556 12.5001 8.07222C12.4206 7.93889 12.3809 7.76852 12.3809 7.56111C12.3809 7.35 12.4327 7.15741 12.5363 6.98333C12.6434 6.80556 12.8041 6.66481 13.0183 6.56111C13.236 6.4537 13.5106 6.4 13.8423 6.4C14.0599 6.4 14.2759 6.42963 14.4901 6.48889C14.7043 6.54815 14.8908 6.63333 15.0498 6.74444L14.8373 7.30556C14.6749 7.20185 14.5073 7.12593 14.3346 7.07778C14.1619 7.02593 13.996 7 13.8371 7C13.6505 7 13.4985 7.02407 13.3811 7.07222C13.267 7.12037 13.1824 7.18333 13.1271 7.26111C13.0753 7.33889 13.0494 7.42778 13.0494 7.52778C13.0494 7.6463 13.0874 7.74259 13.1634 7.81667C13.2429 7.88704 13.3448 7.94259 13.4692 7.98333C13.597 8.02407 13.7386 8.06481 13.8941 8.10556C14.0496 8.14259 14.2033 8.18518 14.3553 8.23333C14.5108 8.28148 14.6507 8.34444 14.7751 8.42222C14.9029 8.5 15.0048 8.60556 15.0809 8.73889C15.1603 8.87222 15.2 9.04074 15.2 9.24444C15.2 9.45185 15.1465 9.64444 15.0394 9.82222C14.9358 9.9963 14.7751 10.137 14.5574 10.2444C14.3398 10.3481 14.0651 10.4 13.7335 10.4Z" fill="white"/>
</g>
</g>
<defs>
<linearGradient id="paint0_linear_102_69" x1="8" y1="0" x2="8" y2="16" gradientUnits="userSpaceOnUse">
<stop stop-color="#0EA5E9"/>
<stop offset="1" stop-color="#0E80E9"/>
</linearGradient>
<clipPath id="clip0_102_69">
<rect width="16" height="16" fill="white"/>
</clipPath>
<clipPath id="clip1_102_69">
<rect width="16" height="16" fill="white"/>
</clipPath>
</defs>
</svg>
